<?xml version="1.0" standalone="no"?><!DOCTYPE svg PUBLIC "-//W3C//DTD SVG 1.1//EN"
        "http://www.w3.org/Graphics/SVG/1.1/DTD/svg11.dtd">
<svg class="icon" width="200px" height="200.00px" viewBox="0 0 1024 1024" version="1.1"
     xmlns="http://www.w3.org/2000/svg">
    <path d="M448 704a31.902 31.902 0 0 1-22.628-9.373l-160-160a32 32 0 0 1 45.256-45.254L448 626.745l265.372-265.372a32 32 0 0 1 45.256 45.254l-288 288A31.902 31.902 0 0 1 448 704z"
          fill="#e6e6e6"/>
    <path d="M896 992H128a96.109 96.109 0 0 1-96-96V128a96.109 96.109 0 0 1 96-96h768a96.109 96.109 0 0 1 96 96v768a96.109 96.109 0 0 1-96 96zM128 96a32.036 32.036 0 0 0-32 32v768a32.036 32.036 0 0 0 32 32h768a32.036 32.036 0 0 0 32-32V128a32.036 32.036 0 0 0-32-32z"
          fill="#e6e6e6"/>
</svg>