<?xml version="1.0" standalone="no"?><!DOCTYPE svg PUBLIC "-//W3C//DTD SVG 1.1//EN" "http://www.w3.org/Graphics/SVG/1.1/DTD/svg11.dtd"><svg class="icon" width="200px" height="200.00px" viewBox="0 0 1024 1024" version="1.1" xmlns="http://www.w3.org/2000/svg"><path d="M738.730667 797.909333A361.386667 361.386667 0 0 1 490.666667 896a361.386667 361.386667 0 0 1-248.064-98.090667c12.8-6.912 24.021333-16.341333 32.981333-27.648A318.848 318.848 0 0 0 490.666667 853.333333c82.773333 0 158.293333-31.445333 215.082666-83.072 8.96 11.306667 20.181333 20.736 32.981334 27.648z m105.898666-185.173333a362.837333 362.837333 0 0 0-247.424-426.197333 108.373333 108.373333 0 0 1-6.570666 42.709333 320.128 320.128 0 0 1 213.418666 369.066667c14.677333 2.048 28.416 7.082667 40.533334 14.421333z m-707.925333 0a362.837333 362.837333 0 0 1 247.424-426.197333 108.373333 108.373333 0 0 0 6.570667 42.709333 320.128 320.128 0 0 0-213.418667 369.066667 105.984 105.984 0 0 0-40.533333 14.421333zM490.666667 256a64 64 0 1 1 0-128 64 64 0 0 1 0 128z m-298.666667 512a64 64 0 1 1 0-128 64 64 0 0 1 0 128z m597.333333 0a64 64 0 1 1 0-128 64 64 0 0 1 0 128z" fill="#ffffff" /></svg>